<?xml version="1.0" encoding="UTF-8"?>
<svg id="Layer_2" data-name="Layer 2" xmlns="http://www.w3.org/2000/svg" viewBox="0 0 599.36 115.88">
  <defs>
    <style>
      .cls-1 {
        fill: #009e73;
      }

      .cls-2 {
        fill: #ffffff;
      }
    </style>
  </defs>
  <g id="Layer_1-2" data-name="Layer 1">
    <circle class="cls-1" cx="42.57" cy="23.48" r="5.58" transform="translate(.54 47.92) rotate(-59.06)"/>
    <path class="cls-2" d="M33.26,109.48l.03-.02s0-.03-.03.02Z"/>
    <path class="cls-2" d="M57.38,44.28c.21-.19.41-.39.6-.58,1.03-1.03,15.35-8.6,15.35-8.6l-9.83-19.34C59.61,6.44,50.73.34,40.71.01h0s-5.02-.01-5.02-.01c-2.93,0-5.84.36-8.66,1.06C11.11,5.05,0,19.29,0,35.69v80.18s12.3-8.97,12.3-8.97V35.69c0-10.75,7.28-20.08,17.7-22.69,1.85-.46,3.76-.7,5.68-.7h4.19c7.33,0,13.3,5.96,13.3,13.3,0,3.55-1.38,6.89-3.89,9.4-1.71,1.71-3.83,2.92-6.15,3.5-1.06.26-2.15.4-3.26.4h-.33c-.07,0-.14,0-.21,0h-9.26s0-20.78,0-20.78l-2.25,1.07c-5.1,2.42-8.84,7.16-10.02,12.67l-.03.16v70.89s12.3,0,12.3,0h9.8c2.6,0,5.21-.32,7.74-.96,6.04-1.51,11.47-4.71,15.69-9.25,6.12-6.58,9.14-15.15,8.49-24.15-.71-9.87-6.05-18.79-14.43-24.28ZM54.31,84.32c-2.61,2.81-5.93,4.78-9.58,5.69-1.57.39-3.2.59-4.85.59h-9.8s0-39.41,0-39.41h9.26c10.59,0,19.46,8.01,20.19,18.24.4,5.55-1.46,10.84-5.23,14.89Z"/>
    <path class="cls-2" d="M93.15,79.1c.85,3.81,2.68,6.8,5.48,8.97,2.8,2.17,6.13,3.26,9.97,3.26,4.93,0,9.16-1.63,12.69-4.89l6.22,9.02c-2.55,2.35-5.48,4.16-8.79,5.46s-6.94,1.94-10.88,1.94c-5.2,0-9.9-1.25-14.1-3.75-4.2-2.5-7.49-5.89-9.87-10.17-2.38-4.28-3.57-8.96-3.57-14.02s1.12-9.84,3.36-14.12,5.36-7.67,9.36-10.17c3.99-2.5,8.47-3.75,13.43-3.75,5.47,0,10.2,1.18,14.17,3.54,3.98,2.36,7,5.63,9.08,9.81,2.07,4.18,3.11,8.96,3.11,14.33,0,1.63-.1,3.14-.31,4.54h-39.36ZM98.19,61.08c-2.45,1.95-4.1,4.67-4.95,8.13h27.02c-.78-3.53-2.32-6.26-4.61-8.18-2.29-1.92-5.19-2.88-8.69-2.88s-6.32.98-8.77,2.93Z"/>
    <path class="cls-2" d="M184.36,49.56c3.2,1.82,5.66,4.45,7.39,7.9,1.73,3.45,2.6,7.57,2.6,12.36v31.61h-13.05v-29.32c0-4.21-1.03-7.48-3.08-9.79-2.06-2.31-4.94-3.47-8.64-3.47-2.41,0-4.63.58-6.65,1.73-2.02,1.16-3.61,2.72-4.77,4.69-1.16,1.97-1.73,4.15-1.73,6.53v29.62h-12.95V25.06h12.95v28.7c2.07-2.07,4.62-3.75,7.65-5.02,3.02-1.27,6.07-1.91,9.13-1.91,4.25,0,7.97.91,11.17,2.73Z"/>
    <path class="cls-2" d="M300.9,101.43h-12.7l-21.67-53.48h14.28l13.77,38.75,13.77-38.75h14.33l-21.77,53.48Z"/>
    <path class="cls-2" d="M366.62,47.95h13v53.43h-11.17l-.87-6.93c-1.97,2.41-4.59,4.37-7.85,5.86s-6.56,2.24-9.89,2.24c-4.28,0-8.01-.91-11.19-2.73-3.18-1.82-5.63-4.45-7.37-7.9-1.73-3.45-2.6-7.57-2.6-12.36v-31.61h13.05v29.32c0,4.21,1.03,7.48,3.08,9.79,2.06,2.31,4.92,3.47,8.59,3.47,2.41,0,4.63-.58,6.65-1.73,2.02-1.16,3.62-2.72,4.79-4.69s1.76-4.15,1.76-6.53v-29.62Z"/>
    <path class="cls-2" d="M426.17,47.95c2.11.71,4.15,1.75,6.12,3.11l-5.76,10.6c-2.65-1.87-5.37-2.8-8.16-2.8-1.97.03-3.84.66-5.61,1.86-1.77,1.21-3.2,2.91-4.31,5.1-1.1,2.19-1.69,4.73-1.76,7.62v27.99h-13v-53.43h11.17l.92,7.19c1.49-2.62,3.46-4.66,5.89-6.12,2.43-1.46,5.19-2.19,8.29-2.19,2.04,0,4.11.36,6.22,1.07Z"/>
    <path class="cls-2" d="M443.4,79.1c.85,3.81,2.68,6.8,5.48,8.97s6.13,3.26,9.97,3.26c4.93,0,9.16-1.63,12.7-4.89l6.22,9.02c-2.55,2.35-5.48,4.16-8.8,5.46s-6.94,1.94-10.88,1.94c-5.2,0-9.9-1.25-14.1-3.75-4.2-2.5-7.49-5.89-9.87-10.17-2.38-4.28-3.57-8.96-3.57-14.02s1.12-9.84,3.36-14.12,5.36-7.67,9.35-10.17c3.99-2.5,8.47-3.75,13.43-3.75,5.47,0,10.2,1.18,14.17,3.54,3.98,2.36,7,5.63,9.08,9.81,2.07,4.18,3.11,8.96,3.11,14.33,0,1.63-.1,3.14-.31,4.54h-39.36ZM448.45,61.08c-2.45,1.95-4.1,4.67-4.94,8.13h27.02c-.78-3.53-2.32-6.26-4.61-8.18-2.29-1.92-5.19-2.88-8.69-2.88s-6.32.98-8.77,2.93Z"/>
    <path class="cls-2" d="M494.9,101.69c-1.22-.68-2.18-1.6-2.85-2.75-.68-1.16-1.02-2.41-1.02-3.77s.34-2.62,1.02-3.77c.68-1.16,1.63-2.07,2.85-2.75s2.6-1.02,4.13-1.02,2.91.34,4.13,1.02,2.17,1.6,2.86,2.75c.68,1.16,1.02,2.41,1.02,3.77s-.34,2.67-1.02,3.82c-.68,1.16-1.63,2.06-2.86,2.73s-2.6.99-4.13.99-2.91-.34-4.13-1.02Z"/>
    <path class="cls-1" d="M587,37.78c-1.24-.73-2.21-1.69-2.91-2.88-.7-1.19-1.05-2.45-1.05-3.77s.35-2.59,1.05-3.8c.7-1.21,1.66-2.18,2.91-2.93,1.24-.75,2.64-1.12,4.21-1.12s2.96.37,4.21,1.12c1.24.75,2.21,1.73,2.91,2.93.7,1.21,1.05,2.47,1.05,3.8s-.35,2.58-1.05,3.77c-.7,1.19-1.67,2.15-2.91,2.88-1.24.73-2.64,1.1-4.21,1.1s-2.97-.36-4.21-1.1ZM597.63,101.43h-13v-53.48h13v53.48Z"/>
    <path class="cls-2" d="M247.47,48l-.82,6.48c-2.04-2.38-4.44-4.25-7.21-5.61-2.77-1.36-5.89-2.04-9.35-2.04-4.83,0-9.3,1.25-13.41,3.75-4.11,2.5-7.38,5.88-9.81,10.15-2.43,4.27-3.64,8.95-3.64,14.05s1.21,9.78,3.62,14.05c2.41,4.27,5.68,7.65,9.81,10.15,4.13,2.5,8.61,3.75,13.43,3.75,3.4,0,6.47-.67,9.23-2.01.59-.29,1.15-.61,1.71-.94l-4.83-10.2c-1.57.52-3.23.81-4.98.81-2.82,0-5.38-.66-7.67-1.99-2.29-1.33-4.1-3.18-5.43-5.56-1.33-2.38-1.99-5.05-1.99-8s.66-5.63,1.99-8.03c1.33-2.4,3.14-4.27,5.46-5.63,2.31-1.36,4.86-2.04,7.65-2.04s5.4.68,7.75,2.04c2.35,1.36,4.2,3.24,5.56,5.63,1.36,2.4,2.04,5.07,2.04,8.03,0,.29-.04.57-.05.86v25.75h12.29v-53.43h-11.32Z"/>
    <path class="cls-1" d="M559.24,48l-.82,6.48c-2.04-2.38-4.44-4.25-7.21-5.61-2.77-1.36-5.89-2.04-9.35-2.04-4.83,0-9.3,1.25-13.41,3.75-4.11,2.5-7.38,5.88-9.81,10.15-2.43,4.27-3.64,8.95-3.64,14.05s1.21,9.78,3.62,14.05c2.41,4.27,5.68,7.65,9.81,10.15,4.13,2.5,8.61,3.75,13.43,3.75,3.4,0,6.47-.67,9.23-2.01.59-.29,1.15-.61,1.71-.94l-4.83-10.2c-1.57.52-3.23.81-4.98.81-2.82,0-5.38-.66-7.67-1.99-2.29-1.33-4.1-3.18-5.43-5.56-1.33-2.38-1.99-5.05-1.99-8s.66-5.63,1.99-8.03c1.33-2.4,3.14-4.27,5.46-5.63,2.31-1.36,4.86-2.04,7.65-2.04s5.4.68,7.75,2.04c2.35,1.36,4.2,3.24,5.56,5.63,1.36,2.4,2.04,5.07,2.04,8.03,0,.29-.04.57-.05.86v25.75h12.29v-53.43h-11.32Z"/>
  </g>
</svg>