<?xml version="1.0" encoding="UTF-8"?>
<svg id="Layer_2" data-name="Layer 2" xmlns="http://www.w3.org/2000/svg" viewBox="0 0 225.43 65.88">
  <defs>
    <style>
      .cls-1 {
        fill: #009e73;
      }

      .cls-2 {
        fill: #ffffff;
      }
    </style>
  </defs>
  <g id="Layer_1-2" data-name="Layer 1">
    <g>
      <path class="cls-2" d="M8.64,8.71v12.24h18.79l2.16,8.64H8.64v12.24h25.27v8.64H0V.07h33.91v8.64H8.64Z"/>
      <path class="cls-2" d="M73.22,0v50.47h-8.64v-18c0-2.93-1.01-5.38-3.02-7.34-2.02-2.02-4.44-3.02-7.27-3.02s-5.33,1.01-7.34,3.02c-2.02,2.02-3.02,4.46-3.02,7.34s1.01,5.26,3.02,7.27c.96,1.01,2.08,1.76,3.35,2.27,1.27.5,2.6.76,4,.76s2.66-.24,3.82-.72l3.1,7.7c-2.21,1.1-4.75,1.66-7.63,1.66-2.64,0-5.08-.49-7.31-1.48s-4.16-2.34-5.8-4.07c-1.63-1.73-2.9-3.74-3.82-6.05-.91-2.3-1.37-4.75-1.37-7.34s.46-5.11,1.37-7.42c.91-2.3,2.18-4.32,3.82-6.05,1.63-1.73,3.56-3.08,5.8-4.07,2.23-.98,4.67-1.48,7.31-1.48,2.3,0,4.37.36,6.19,1.08,1.82.72,3.43,1.63,4.82,2.74V0h8.64Z"/>
      <path class="cls-2" d="M115.2,46.87c0,2.59-.49,5.04-1.48,7.34-.98,2.3-2.34,4.32-4.07,6.05s-3.74,3.1-6.05,4.1c-2.3,1.01-4.78,1.51-7.42,1.51-2.16,0-4.2-.34-6.12-1.01-1.92-.67-3.7-1.63-5.33-2.88l6.26-6.19c1.54.96,3.26,1.44,5.18,1.44,2.93,0,5.38-1.03,7.34-3.1,2.02-2.02,3.02-4.44,3.02-7.27v-14.47c0-2.78-1.01-5.23-3.02-7.34-2.02-2.02-4.46-3.02-7.34-3.02s-5.23,1.01-7.34,3.02c-2.02,2.11-3.02,4.56-3.02,7.34s1.01,5.33,3.02,7.34c2.11,2.02,4.56,3.02,7.34,3.02,1.44,0,2.74-.24,3.89-.72l3.24,8.06c-2.16.86-4.49,1.3-6.98,1.3h-.14c-2.59,0-5.04-.49-7.34-1.48s-4.32-2.34-6.05-4.07c-1.73-1.73-3.1-3.74-4.1-6.05-1.01-2.3-1.51-4.78-1.51-7.42s.43-5.11,1.3-7.42c.86-2.3,2.08-4.32,3.64-6.05,1.56-1.73,3.43-3.08,5.62-4.07,2.18-.98,4.57-1.48,7.16-1.48s4.7.37,6.62,1.12c1.92.74,3.6,1.67,5.04,2.77v-2.81h8.64v32.4Z"/>
      <path class="cls-2" d="M146.88,36.79h-18.86c.48,1.1,1.18,2.09,2.09,2.95,1.01,1.01,2.14,1.76,3.38,2.27,1.25.5,2.57.76,3.96.76,1.97,0,3.72-.46,5.26-1.37l9,3.6c-1.73,2.02-3.82,3.59-6.26,4.72-2.45,1.13-5.11,1.69-7.99,1.69-2.64,0-5.11-.49-7.42-1.48-2.3-.98-4.32-2.34-6.05-4.07-1.73-1.73-3.08-3.74-4.07-6.05-.98-2.3-1.48-4.75-1.48-7.34s.49-5.11,1.48-7.42c.98-2.3,2.34-4.32,4.07-6.05,1.73-1.73,3.74-3.08,6.05-4.07,2.3-.98,4.78-1.48,7.42-1.48s5.11.49,7.42,1.48c2.3.98,4.32,2.34,6.05,4.07,1.73,1.73,3.08,3.74,4.07,6.05.98,2.3,1.48,4.78,1.48,7.42,0,1.54-.17,2.98-.5,4.32h-9.07ZM137.45,22.1c-2.78,0-5.23,1.01-7.34,3.02-.91.91-1.61,1.92-2.09,3.02h18.86c-.48-1.1-1.18-2.11-2.09-3.02-2.02-2.02-4.46-3.02-7.34-3.02Z"/>
      <path class="cls-1" d="M174.81.07h8.64v8.64h-8.64V.07ZM174.81,50.47V14.47h8.64v36h-8.64Z"/>
      <path class="cls-1" d="M225.43,14.4v50.47h-8.64v-32.4c0-2.88-1.01-5.33-3.02-7.34-2.11-2.02-4.56-3.02-7.34-3.02s-5.33,1.01-7.34,3.02c-2.02,2.02-3.02,4.46-3.02,7.34s1.01,5.26,3.02,7.27c.96,1.01,2.08,1.76,3.35,2.27,1.27.5,2.6.76,4,.76s2.74-.24,3.89-.72l3.1,7.7c-2.3,1.1-4.87,1.66-7.7,1.66-2.64,0-5.08-.49-7.31-1.48-2.23-.98-4.16-2.34-5.8-4.07-1.63-1.73-2.9-3.74-3.82-6.05-.91-2.3-1.37-4.75-1.37-7.34s.46-5.11,1.37-7.42c.91-2.3,2.18-4.32,3.82-6.05,1.63-1.73,3.56-3.08,5.8-4.07,2.23-.98,4.67-1.48,7.31-1.48,2.35,0,4.44.36,6.26,1.08,1.82.72,3.43,1.63,4.82,2.74v-2.88h8.64Z"/>
    </g>
  </g>
</svg>