<?xml version="1.0" encoding="UTF-8"?>
<svg id="Layer_1" data-name="Layer 1" xmlns="http://www.w3.org/2000/svg" xmlns:xlink="http://www.w3.org/1999/xlink" viewBox="0 0 841.89 393.95">
  <defs>
    <style>
      .cls-1 {
        fill: url(#lyft_data);
      }

      .cls-2 {
        fill: #fff;
      }

      .cls-3 {
        fill: url(#lyft_data-2);
      }
    </style>
    <linearGradient id="lyft_data" data-name="lyft data" x1="174.11" y1="265.26" x2="174.11" y2="175.12" gradientUnits="userSpaceOnUse">
      <stop offset="0" stop-color="#1efcb9"/>
      <stop offset="1" stop-color="#13a6ea"/>
    </linearGradient>
    <linearGradient id="lyft_data-2" data-name="lyft data" x1="193.38" y1="219.63" x2="193.38" y2="129.48" xlink:href="#lyft_data"/>
  </defs>
  <g>
    <g>
      <path class="cls-2" d="M542.16,221.82c-1.59,2.66-3.66,4.58-6.23,5.75-2.57,1.17-5.47,1.76-8.7,1.76-3.68,0-6.91-.71-9.7-2.14-2.79-1.43-5.09-3.36-6.9-5.8-1.81-2.44-3.17-5.25-4.09-8.42-.92-3.17-1.38-6.47-1.38-9.89s.46-6.48,1.38-9.56c.92-3.07,2.28-5.79,4.09-8.13,1.81-2.35,4.07-4.23,6.8-5.66,2.73-1.43,5.9-2.14,9.51-2.14,2.92,0,5.69,.62,8.32,1.86,2.63,1.24,4.71,3.06,6.23,5.47h.19v-24.73h13.51v67.92h-12.84v-6.28h-.19Zm-.57-24.3c-.38-1.87-1.03-3.52-1.95-4.95-.92-1.43-2.11-2.58-3.57-3.47-1.46-.89-3.3-1.33-5.52-1.33s-4.09,.44-5.61,1.33c-1.52,.89-2.74,2.06-3.66,3.52-.92,1.46-1.59,3.12-2,4.99-.41,1.87-.62,3.82-.62,5.85,0,1.9,.22,3.8,.67,5.71,.44,1.9,1.16,3.6,2.14,5.09,.98,1.49,2.22,2.7,3.71,3.61,1.49,.92,3.28,1.38,5.37,1.38,2.22,0,4.07-.44,5.56-1.33,1.49-.89,2.68-2.08,3.57-3.57,.89-1.49,1.52-3.19,1.9-5.09s.57-3.87,.57-5.9-.19-3.98-.57-5.85Z"/>
      <path class="cls-2" d="M566.7,194.04c.19-3.17,.98-5.8,2.38-7.9,1.39-2.09,3.17-3.77,5.33-5.04,2.16-1.27,4.58-2.17,7.28-2.71,2.7-.54,5.41-.81,8.13-.81,2.47,0,4.98,.18,7.51,.52,2.54,.35,4.85,1.03,6.94,2.05,2.09,1.01,3.8,2.43,5.14,4.23,1.33,1.81,2,4.2,2,7.18v25.59c0,2.22,.13,4.34,.38,6.37,.25,2.03,.7,3.55,1.33,4.57h-13.7c-.26-.76-.46-1.54-.62-2.33-.16-.79-.27-1.6-.33-2.43-2.16,2.22-4.69,3.77-7.61,4.66-2.92,.89-5.9,1.33-8.94,1.33-2.35,0-4.53-.29-6.56-.86-2.03-.57-3.8-1.46-5.33-2.66-1.52-1.2-2.71-2.73-3.57-4.57-.86-1.84-1.28-4.03-1.28-6.56,0-2.79,.49-5.09,1.47-6.9,.98-1.81,2.25-3.25,3.8-4.33,1.55-1.08,3.33-1.89,5.33-2.43,2-.54,4.01-.97,6.04-1.28,2.03-.32,4.03-.57,5.99-.76,1.96-.19,3.71-.48,5.23-.86s2.73-.94,3.61-1.66c.89-.73,1.3-1.79,1.24-3.19,0-1.46-.24-2.62-.71-3.47s-1.11-1.52-1.9-2c-.79-.48-1.71-.79-2.76-.95-1.05-.16-2.17-.24-3.38-.24-2.66,0-4.76,.57-6.28,1.71-1.52,1.14-2.41,3.04-2.66,5.71h-13.51Zm31.2,9.99c-.57,.51-1.28,.9-2.14,1.19s-1.78,.52-2.76,.71c-.98,.19-2.01,.35-3.09,.48-1.08,.13-2.16,.29-3.24,.48-1.01,.19-2.01,.44-3,.76-.98,.32-1.84,.75-2.57,1.28-.73,.54-1.32,1.22-1.76,2.04-.44,.82-.67,1.87-.67,3.14s.22,2.22,.67,3.04c.44,.82,1.05,1.47,1.81,1.95s1.65,.81,2.66,1c1.01,.19,2.06,.28,3.14,.28,2.66,0,4.72-.44,6.18-1.33,1.46-.89,2.54-1.95,3.23-3.19,.7-1.24,1.12-2.49,1.28-3.76,.16-1.27,.24-2.28,.24-3.04v-5.04Z"/>
      <path class="cls-2" d="M650.78,178.92v9.04h-9.89v24.35c0,2.28,.38,3.8,1.14,4.57,.76,.76,2.28,1.14,4.57,1.14,.76,0,1.49-.03,2.19-.09,.7-.06,1.36-.16,2-.29v10.46c-1.14,.19-2.41,.32-3.8,.38-1.39,.06-2.76,.1-4.09,.1-2.09,0-4.07-.14-5.94-.43-1.87-.29-3.52-.84-4.95-1.66-1.43-.82-2.55-2-3.38-3.52-.82-1.52-1.24-3.52-1.24-5.99v-29.01h-8.18v-9.04h8.18v-14.74h13.51v14.74h9.89Z"/>
      <path class="cls-2" d="M658.58,194.04c.19-3.17,.98-5.8,2.38-7.9,1.39-2.09,3.17-3.77,5.33-5.04,2.16-1.27,4.58-2.17,7.28-2.71,2.7-.54,5.41-.81,8.13-.81,2.47,0,4.98,.18,7.51,.52,2.54,.35,4.85,1.03,6.94,2.05,2.09,1.01,3.8,2.43,5.14,4.23,1.33,1.81,2,4.2,2,7.18v25.59c0,2.22,.13,4.34,.38,6.37,.25,2.03,.7,3.55,1.33,4.57h-13.7c-.26-.76-.46-1.54-.62-2.33-.16-.79-.27-1.6-.33-2.43-2.16,2.22-4.69,3.77-7.61,4.66-2.92,.89-5.9,1.33-8.94,1.33-2.35,0-4.53-.29-6.56-.86-2.03-.57-3.8-1.46-5.33-2.66-1.52-1.2-2.71-2.73-3.57-4.57-.86-1.84-1.28-4.03-1.28-6.56,0-2.79,.49-5.09,1.47-6.9,.98-1.81,2.25-3.25,3.8-4.33,1.55-1.08,3.33-1.89,5.33-2.43,2-.54,4.01-.97,6.04-1.28,2.03-.32,4.03-.57,5.99-.76,1.96-.19,3.71-.48,5.23-.86s2.73-.94,3.61-1.66c.89-.73,1.3-1.79,1.24-3.19,0-1.46-.24-2.62-.71-3.47s-1.11-1.52-1.9-2c-.79-.48-1.71-.79-2.76-.95-1.05-.16-2.17-.24-3.38-.24-2.66,0-4.76,.57-6.28,1.71-1.52,1.14-2.41,3.04-2.66,5.71h-13.51Zm31.2,9.99c-.57,.51-1.28,.9-2.14,1.19s-1.78,.52-2.76,.71c-.98,.19-2.01,.35-3.09,.48-1.08,.13-2.16,.29-3.24,.48-1.01,.19-2.01,.44-3,.76-.98,.32-1.84,.75-2.57,1.28-.73,.54-1.32,1.22-1.76,2.04-.44,.82-.67,1.87-.67,3.14s.22,2.22,.67,3.04c.44,.82,1.05,1.47,1.81,1.95s1.65,.81,2.66,1c1.01,.19,2.06,.28,3.14,.28,2.66,0,4.72-.44,6.18-1.33,1.46-.89,2.54-1.95,3.23-3.19,.7-1.24,1.12-2.49,1.28-3.76,.16-1.27,.24-2.28,.24-3.04v-5.04Z"/>
    </g>
    <g>
      <path class="cls-2" d="M290.89,160.18v67.89h-13.5v-67.89h13.5Z"/>
      <path class="cls-2" d="M325.85,242.72c-2.6,1.71-6.21,2.57-10.84,2.57-1.39,0-2.77-.05-4.14-.14-1.36-.09-2.74-.21-4.14-.33v-11.13c1.27,.13,2.57,.25,3.9,.38,1.33,.13,2.66,.16,3.99,.1,1.77-.19,3.09-.89,3.95-2.09,.86-1.2,1.28-2.54,1.28-3.99,0-1.08-.19-2.09-.57-3.04l-17.21-46.12h14.36l11.13,33.66h.19l10.75-33.66h13.98l-20.54,55.25c-1.46,3.99-3.49,6.85-6.09,8.56Z"/>
      <path class="cls-2" d="M363.54,187.95v-9.03h8.08v-3.8c0-4.37,1.36-7.95,4.09-10.74,2.72-2.79,6.85-4.18,12.36-4.18,1.2,0,2.41,.05,3.61,.14,1.2,.1,2.38,.18,3.52,.24v10.08c-1.58-.19-3.23-.29-4.94-.29-1.84,0-3.15,.43-3.95,1.28-.79,.86-1.19,2.3-1.19,4.33v2.95h9.32v9.03h-9.32v40.13h-13.5v-40.13h-8.08Z"/>
      <path class="cls-2" d="M437.23,178.91v9.03h-9.89v24.34c0,2.28,.38,3.8,1.14,4.56,.76,.76,2.28,1.14,4.56,1.14,.76,0,1.49-.03,2.19-.1,.7-.06,1.36-.16,2-.29v10.46c-1.14,.19-2.41,.32-3.8,.38-1.4,.06-2.76,.1-4.09,.1-2.09,0-4.07-.14-5.94-.43-1.87-.28-3.52-.84-4.94-1.66-1.43-.82-2.55-2-3.38-3.52-.82-1.52-1.24-3.52-1.24-5.99v-29h-8.18v-9.03h8.18v-14.74h13.5v14.74h9.89Z"/>
    </g>
    <rect class="cls-2" x="468.74" y="151.08" width="5.67" height="91.28"/>
  </g>
  <g>
    <polygon class="cls-1" points="185.72 175.12 174.06 221.98 209.92 254.33 174.15 265.26 138.29 232.92 149.94 186.05 185.72 175.12"/>
    <polygon class="cls-3" points="181.77 219.63 193.42 172.76 157.56 140.41 193.33 129.48 229.2 161.83 217.54 208.7 181.77 219.63"/>
  </g>
</svg>