<?xml version="1.0" encoding="UTF-8" standalone="no"?>
<!-- Created with Inkscape (http://www.inkscape.org/) -->

<svg
   width="149.94202mm"
   height="35.925125mm"
   viewBox="0 0 149.94202 35.925125"
   version="1.1"
   id="svg1"
   inkscape:version="1.4 (86a8ad7, 2024-10-11)"
   sodipodi:docname="lyftdata-logo-dark-grad-transparent-no-margin.svg"
   xmlns:inkscape="http://www.inkscape.org/namespaces/inkscape"
   xmlns:sodipodi="http://sodipodi.sourceforge.net/DTD/sodipodi-0.dtd"
   xmlns:xlink="http://www.w3.org/1999/xlink"
   xmlns="http://www.w3.org/2000/svg"
   xmlns:svg="http://www.w3.org/2000/svg">
  <sodipodi:namedview
     id="namedview1"
     pagecolor="#000000"
     bordercolor="#666666"
     borderopacity="1.0"
     inkscape:showpageshadow="2"
     inkscape:pageopacity="0.0"
     inkscape:pagecheckerboard="0"
     inkscape:deskcolor="#d1d1d1"
     inkscape:document-units="mm"
     inkscape:zoom="1.6168981"
     inkscape:cx="283.25841"
     inkscape:cy="68.34073"
     inkscape:window-width="3840"
     inkscape:window-height="2054"
     inkscape:window-x="5749"
     inkscape:window-y="-11"
     inkscape:window-maximized="1"
     inkscape:current-layer="layer1" />
  <defs
     id="defs1">
    <linearGradient
       id="lyft_data"
       data-name="lyft data"
       x1="174.11"
       y1="265.26001"
       x2="174.11"
       y2="175.12"
       gradientUnits="userSpaceOnUse">
      <stop
         offset="0"
         stop-color="#1efcb9"
         id="stop1" />
      <stop
         offset="1"
         stop-color="#13a6ea"
         id="stop2" />
    </linearGradient>
    <linearGradient
       id="lyft_data-2"
       data-name="lyft data"
       x1="193.38"
       y1="219.63"
       x2="193.38"
       y2="129.48"
       xlink:href="#lyft_data" />
    <linearGradient
       inkscape:collect="always"
       xlink:href="#lyft_data"
       id="linearGradient5"
       gradientUnits="userSpaceOnUse"
       x1="174.11"
       y1="265.26001"
       x2="174.11"
       y2="175.12" />
  </defs>
  <g
     inkscape:label="Layer 1"
     inkscape:groupmode="layer"
     id="layer1"
     transform="translate(-30.1625,-130.43958)">
    <g
       id="g10"
       transform="matrix(0.26458333,0,0,0.26458333,-6.426729,96.181333)">
      <g
         id="g5">
        <path
           class="cls-2"
           d="m 542.16,221.82 c -1.59,2.66 -3.66,4.58 -6.23,5.75 -2.57,1.17 -5.47,1.76 -8.7,1.76 -3.68,0 -6.91,-0.71 -9.7,-2.14 -2.79,-1.43 -5.09,-3.36 -6.9,-5.8 -1.81,-2.44 -3.17,-5.25 -4.09,-8.42 -0.92,-3.17 -1.38,-6.47 -1.38,-9.89 0,-3.42 0.46,-6.48 1.38,-9.56 0.92,-3.07 2.28,-5.79 4.09,-8.13 1.81,-2.35 4.07,-4.23 6.8,-5.66 2.73,-1.43 5.9,-2.14 9.51,-2.14 2.92,0 5.69,0.62 8.32,1.86 2.63,1.24 4.71,3.06 6.23,5.47 h 0.19 v -24.73 h 13.51 v 67.92 h -12.84 v -6.28 h -0.19 z m -0.57,-24.3 c -0.38,-1.87 -1.03,-3.52 -1.95,-4.95 -0.92,-1.43 -2.11,-2.58 -3.57,-3.47 -1.46,-0.89 -3.3,-1.33 -5.52,-1.33 -2.22,0 -4.09,0.44 -5.61,1.33 -1.52,0.89 -2.74,2.06 -3.66,3.52 -0.92,1.46 -1.59,3.12 -2,4.99 -0.41,1.87 -0.62,3.82 -0.62,5.85 0,1.9 0.22,3.8 0.67,5.71 0.44,1.9 1.16,3.6 2.14,5.09 0.98,1.49 2.22,2.7 3.71,3.61 1.49,0.92 3.28,1.38 5.37,1.38 2.22,0 4.07,-0.44 5.56,-1.33 1.49,-0.89 2.68,-2.08 3.57,-3.57 0.89,-1.49 1.52,-3.19 1.9,-5.09 0.38,-1.9 0.57,-3.87 0.57,-5.9 0,-2.03 -0.19,-3.98 -0.57,-5.85 z"
           id="path2"
           style="fill:#ffffff" />
        <path
           class="cls-2"
           d="m 566.7,194.04 c 0.19,-3.17 0.98,-5.8 2.38,-7.9 1.39,-2.09 3.17,-3.77 5.33,-5.04 2.16,-1.27 4.58,-2.17 7.28,-2.71 2.7,-0.54 5.41,-0.81 8.13,-0.81 2.47,0 4.98,0.18 7.51,0.52 2.54,0.35 4.85,1.03 6.94,2.05 2.09,1.01 3.8,2.43 5.14,4.23 1.33,1.81 2,4.2 2,7.18 v 25.59 c 0,2.22 0.13,4.34 0.38,6.37 0.25,2.03 0.7,3.55 1.33,4.57 h -13.7 c -0.26,-0.76 -0.46,-1.54 -0.62,-2.33 -0.16,-0.79 -0.27,-1.6 -0.33,-2.43 -2.16,2.22 -4.69,3.77 -7.61,4.66 -2.92,0.89 -5.9,1.33 -8.94,1.33 -2.35,0 -4.53,-0.29 -6.56,-0.86 -2.03,-0.57 -3.8,-1.46 -5.33,-2.66 -1.52,-1.2 -2.71,-2.73 -3.57,-4.57 -0.86,-1.84 -1.28,-4.03 -1.28,-6.56 0,-2.79 0.49,-5.09 1.47,-6.9 0.98,-1.81 2.25,-3.25 3.8,-4.33 1.55,-1.08 3.33,-1.89 5.33,-2.43 2,-0.54 4.01,-0.97 6.04,-1.28 2.03,-0.32 4.03,-0.57 5.99,-0.76 1.96,-0.19 3.71,-0.48 5.23,-0.86 1.52,-0.38 2.73,-0.94 3.61,-1.66 0.89,-0.73 1.3,-1.79 1.24,-3.19 0,-1.46 -0.24,-2.62 -0.71,-3.47 -0.47,-0.85 -1.11,-1.52 -1.9,-2 -0.79,-0.48 -1.71,-0.79 -2.76,-0.95 -1.05,-0.16 -2.17,-0.24 -3.38,-0.24 -2.66,0 -4.76,0.57 -6.28,1.71 -1.52,1.14 -2.41,3.04 -2.66,5.71 h -13.51 z m 31.2,9.99 c -0.57,0.51 -1.28,0.9 -2.14,1.19 -0.86,0.29 -1.78,0.52 -2.76,0.71 -0.98,0.19 -2.01,0.35 -3.09,0.48 -1.08,0.13 -2.16,0.29 -3.24,0.48 -1.01,0.19 -2.01,0.44 -3,0.76 -0.98,0.32 -1.84,0.75 -2.57,1.28 -0.73,0.54 -1.32,1.22 -1.76,2.04 -0.44,0.82 -0.67,1.87 -0.67,3.14 0,1.27 0.22,2.22 0.67,3.04 0.44,0.82 1.05,1.47 1.81,1.95 0.76,0.48 1.65,0.81 2.66,1 1.01,0.19 2.06,0.28 3.14,0.28 2.66,0 4.72,-0.44 6.18,-1.33 1.46,-0.89 2.54,-1.95 3.23,-3.19 0.7,-1.24 1.12,-2.49 1.28,-3.76 0.16,-1.27 0.24,-2.28 0.24,-3.04 v -5.04 z"
           id="path3"
           style="fill:#ffffff" />
        <path
           class="cls-2"
           d="m 650.78,178.92 v 9.04 h -9.89 v 24.35 c 0,2.28 0.38,3.8 1.14,4.57 0.76,0.76 2.28,1.14 4.57,1.14 0.76,0 1.49,-0.03 2.19,-0.09 0.7,-0.06 1.36,-0.16 2,-0.29 v 10.46 c -1.14,0.19 -2.41,0.32 -3.8,0.38 -1.39,0.06 -2.76,0.1 -4.09,0.1 -2.09,0 -4.07,-0.14 -5.94,-0.43 -1.87,-0.29 -3.52,-0.84 -4.95,-1.66 -1.43,-0.82 -2.55,-2 -3.38,-3.52 -0.82,-1.52 -1.24,-3.52 -1.24,-5.99 v -29.01 h -8.18 v -9.04 h 8.18 v -14.74 h 13.51 v 14.74 h 9.89 z"
           id="path4"
           style="fill:#ffffff" />
        <path
           class="cls-2"
           d="m 658.58,194.04 c 0.19,-3.17 0.98,-5.8 2.38,-7.9 1.39,-2.09 3.17,-3.77 5.33,-5.04 2.16,-1.27 4.58,-2.17 7.28,-2.71 2.7,-0.54 5.41,-0.81 8.13,-0.81 2.47,0 4.98,0.18 7.51,0.52 2.54,0.35 4.85,1.03 6.94,2.05 2.09,1.01 3.8,2.43 5.14,4.23 1.33,1.81 2,4.2 2,7.18 v 25.59 c 0,2.22 0.13,4.34 0.38,6.37 0.25,2.03 0.7,3.55 1.33,4.57 h -13.7 c -0.26,-0.76 -0.46,-1.54 -0.62,-2.33 -0.16,-0.79 -0.27,-1.6 -0.33,-2.43 -2.16,2.22 -4.69,3.77 -7.61,4.66 -2.92,0.89 -5.9,1.33 -8.94,1.33 -2.35,0 -4.53,-0.29 -6.56,-0.86 -2.03,-0.57 -3.8,-1.46 -5.33,-2.66 -1.52,-1.2 -2.71,-2.73 -3.57,-4.57 -0.86,-1.84 -1.28,-4.03 -1.28,-6.56 0,-2.79 0.49,-5.09 1.47,-6.9 0.98,-1.81 2.25,-3.25 3.8,-4.33 1.55,-1.08 3.33,-1.89 5.33,-2.43 2,-0.54 4.01,-0.97 6.04,-1.28 2.03,-0.32 4.03,-0.57 5.99,-0.76 1.96,-0.19 3.71,-0.48 5.23,-0.86 1.52,-0.38 2.73,-0.94 3.61,-1.66 0.89,-0.73 1.3,-1.79 1.24,-3.19 0,-1.46 -0.24,-2.62 -0.71,-3.47 -0.47,-0.85 -1.11,-1.52 -1.9,-2 -0.79,-0.48 -1.71,-0.79 -2.76,-0.95 -1.05,-0.16 -2.17,-0.24 -3.38,-0.24 -2.66,0 -4.76,0.57 -6.28,1.71 -1.52,1.14 -2.41,3.04 -2.66,5.71 h -13.51 z m 31.2,9.99 c -0.57,0.51 -1.28,0.9 -2.14,1.19 -0.86,0.29 -1.78,0.52 -2.76,0.71 -0.98,0.19 -2.01,0.35 -3.09,0.48 -1.08,0.13 -2.16,0.29 -3.24,0.48 -1.01,0.19 -2.01,0.44 -3,0.76 -0.98,0.32 -1.84,0.75 -2.57,1.28 -0.73,0.54 -1.32,1.22 -1.76,2.04 -0.44,0.82 -0.67,1.87 -0.67,3.14 0,1.27 0.22,2.22 0.67,3.04 0.44,0.82 1.05,1.47 1.81,1.95 0.76,0.48 1.65,0.81 2.66,1 1.01,0.19 2.06,0.28 3.14,0.28 2.66,0 4.72,-0.44 6.18,-1.33 1.46,-0.89 2.54,-1.95 3.23,-3.19 0.7,-1.24 1.12,-2.49 1.28,-3.76 0.16,-1.27 0.24,-2.28 0.24,-3.04 v -5.04 z"
           id="path5"
           style="fill:#ffffff" />
      </g>
      <g
         id="g9">
        <path
           class="cls-2"
           d="m 290.89,160.18 v 67.89 h -13.5 v -67.89 z"
           id="path6"
           style="fill:#ffffff" />
        <path
           class="cls-2"
           d="m 325.85,242.72 c -2.6,1.71 -6.21,2.57 -10.84,2.57 -1.39,0 -2.77,-0.05 -4.14,-0.14 -1.36,-0.09 -2.74,-0.21 -4.14,-0.33 v -11.13 c 1.27,0.13 2.57,0.25 3.9,0.38 1.33,0.13 2.66,0.16 3.99,0.1 1.77,-0.19 3.09,-0.89 3.95,-2.09 0.86,-1.2 1.28,-2.54 1.28,-3.99 0,-1.08 -0.19,-2.09 -0.57,-3.04 l -17.21,-46.12 h 14.36 l 11.13,33.66 h 0.19 l 10.75,-33.66 h 13.98 l -20.54,55.25 c -1.46,3.99 -3.49,6.85 -6.09,8.56 z"
           id="path7"
           style="fill:#ffffff" />
        <path
           class="cls-2"
           d="m 363.54,187.95 v -9.03 h 8.08 v -3.8 c 0,-4.37 1.36,-7.95 4.09,-10.74 2.72,-2.79 6.85,-4.18 12.36,-4.18 1.2,0 2.41,0.05 3.61,0.14 1.2,0.1 2.38,0.18 3.52,0.24 v 10.08 c -1.58,-0.19 -3.23,-0.29 -4.94,-0.29 -1.84,0 -3.15,0.43 -3.95,1.28 -0.79,0.86 -1.19,2.3 -1.19,4.33 v 2.95 h 9.32 v 9.03 h -9.32 v 40.13 h -13.5 v -40.13 h -8.08 z"
           id="path8"
           style="fill:#ffffff" />
        <path
           class="cls-2"
           d="m 437.23,178.91 v 9.03 h -9.89 v 24.34 c 0,2.28 0.38,3.8 1.14,4.56 0.76,0.76 2.28,1.14 4.56,1.14 0.76,0 1.49,-0.03 2.19,-0.1 0.7,-0.06 1.36,-0.16 2,-0.29 v 10.46 c -1.14,0.19 -2.41,0.32 -3.8,0.38 -1.4,0.06 -2.76,0.1 -4.09,0.1 -2.09,0 -4.07,-0.14 -5.94,-0.43 -1.87,-0.28 -3.52,-0.84 -4.94,-1.66 -1.43,-0.82 -2.55,-2 -3.38,-3.52 -0.82,-1.52 -1.24,-3.52 -1.24,-5.99 v -29 h -8.18 v -9.03 h 8.18 v -14.74 h 13.5 v 14.74 h 9.89 z"
           id="path9"
           style="fill:#ffffff" />
      </g>
      <rect
         class="cls-2"
         x="468.73999"
         y="151.08"
         width="5.6700001"
         height="91.279999"
         id="rect9"
         style="fill:#ffffff" />
    </g>
    <g
       id="g11"
       transform="matrix(0.26458333,0,0,0.26458333,-6.426729,96.181333)">
      <polygon
         class="cls-1"
         points="149.94,186.05 185.72,175.12 174.06,221.98 209.92,254.33 174.15,265.26 138.29,232.92 "
         id="polygon10"
         style="fill:url(#linearGradient5)" />
      <polygon
         class="cls-3"
         points="217.54,208.7 181.77,219.63 193.42,172.76 157.56,140.41 193.33,129.48 229.2,161.83 "
         id="polygon11"
         style="fill:url(#lyft_data-2)" />
    </g>
  </g>
</svg>
